<svg id="root" fill="none" height="17" viewBox="0 0 16 17" width="16" xmlns="http://www.w3.org/2000/svg" xmlns:xlink="http://www.w3.org/1999/xlink"><clipPath id="a"><path d="m0 .5h16v16h-16z"/></clipPath><g clip-path="url(#a)"><path d="m8 .697998c-4.42 0-8 3.582002-8 8.000002 0 3.5353 2.292 6.5333 5.47 7.59.4.0753.54667-.172.54667-.3847 0-.19-.00667-.6933-.01-1.36-2.22534.4827-2.69467-1.0733-2.69467-1.0733-.364-.9233-.89-1.17-.89-1.17-.72467-.496.056-.486.056-.486.80333.056 1.22533.824 1.22533.824.71334 1.2233 1.87267.87 2.33.6653.072-.5173.278-.87.50667-1.07-1.77667-.2-3.644-.888-3.644-3.9533 0-.87334.31-1.58667.82333-2.14667-.09-.202-.36-1.01533.07-2.11733 0 0 .67-.21467 2.2.82.64-.178 1.32-.266 2-.27.68.004 1.36.092 2 .27 1.51997-1.03467 2.18997-.82 2.18997-.82.43 1.102.16 1.91533.08 2.11733.51.56.82 1.27333.82 2.14667 0 3.0733-1.87 3.75-3.64997 3.9467.28.24.54.7306.54 1.48 0 1.0706-.01 1.9306-.01 2.1906 0 .21.13997.46.54997.38 3.2007-1.0493 5.4907-4.0493 5.4907-7.5793 0-4.418-3.582-8.000002-8-8.000002z" fill="currentColor"/></g></svg>
