<svg id="root" width="16" height="17" viewBox="0 0 16 17" fill="none" xmlns="http://www.w3.org/2000/svg">
  <g clip-path="url(#clip0_1013_10986)">
    <path d="M4.68672 0.190533C3.83552 0.230666 3.25425 0.366533 2.74605 0.566133C2.22019 0.771133 1.77439 1.04613 1.33085 1.49127C0.887388 1.9364 0.614188 2.38247 0.410721 2.90927C0.213788 3.41847 0.0803211 4.00027 0.0427211 4.85193C0.00512106 5.7036 -0.00321227 5.9774 0.000987726 8.14993C0.00512106 10.3223 0.0147211 10.5947 0.0559877 11.4481C0.0966544 12.2991 0.231988 12.8803 0.431654 13.3886C0.636988 13.9145 0.911654 14.3601 1.35699 14.8038C1.80225 15.2475 2.24799 15.52 2.77599 15.7238C3.28479 15.9205 3.86672 16.0545 4.71825 16.0918C5.56979 16.1291 5.84385 16.1378 8.01572 16.1336C10.1876 16.1295 10.4611 16.1198 11.3143 16.0793C12.1676 16.0389 12.7456 15.9025 13.2541 15.7038C13.7801 15.4981 14.226 15.2238 14.6693 14.7784C15.1127 14.3329 15.3857 13.8865 15.589 13.3595C15.7861 12.8507 15.9201 12.2688 15.957 11.4179C15.9943 10.5639 16.0031 10.2913 15.999 8.1192C15.9948 5.947 15.985 5.67467 15.9445 4.82153C15.9041 3.9684 15.7685 3.38907 15.569 2.8804C15.3634 2.35447 15.089 1.9092 14.6439 1.4652C14.1988 1.0212 13.752 0.748399 13.2252 0.545533C12.716 0.348533 12.1345 0.214333 11.2829 0.177533C10.4314 0.140733 10.1573 0.131199 7.98465 0.135466C5.81199 0.139599 5.53999 0.148933 4.68672 0.190533ZM4.78019 14.6526C4.00019 14.6187 3.57665 14.4891 3.29439 14.3806C2.92065 14.2366 2.65439 14.0625 2.37312 13.7839C2.09179 13.5054 1.91905 13.2382 1.77312 12.8653C1.66352 12.583 1.53152 12.1599 1.49505 11.3799C1.45539 10.5369 1.44705 10.2838 1.44239 8.14793C1.43772 6.01213 1.44592 5.75927 1.48285 4.91593C1.51619 4.1366 1.64659 3.7126 1.75485 3.43047C1.89885 3.05627 2.07232 2.79047 2.35152 2.5094C2.63072 2.22827 2.89712 2.05513 3.27039 1.9092C3.55239 1.79913 3.97539 1.66827 4.75505 1.63113C5.59872 1.59113 5.85152 1.58313 7.98705 1.57847C10.1226 1.5738 10.3761 1.5818 11.2201 1.619C11.9994 1.65287 12.4236 1.782 12.7054 1.891C13.0793 2.035 13.3454 2.20793 13.6265 2.48767C13.9076 2.76727 14.0809 3.03273 14.2268 3.4068C14.337 3.68793 14.4679 4.1108 14.5047 4.891C14.5449 5.73467 14.554 5.98767 14.5578 8.123C14.5617 10.2583 14.5541 10.5119 14.5171 11.355C14.4831 12.135 14.3538 12.5587 14.2451 12.8413C14.1011 13.2149 13.9276 13.4813 13.6482 13.7622C13.3689 14.0432 13.1028 14.2163 12.7293 14.3622C12.4477 14.4721 12.0242 14.6033 11.2452 14.6405C10.4015 14.6801 10.1487 14.6885 8.01232 14.6931C5.87599 14.6978 5.62385 14.6891 4.78019 14.6526ZM11.302 3.8588C11.3023 4.04869 11.3589 4.23421 11.4647 4.39192C11.5705 4.54962 11.7206 4.67242 11.8962 4.74477C12.0717 4.81713 12.2648 4.83579 12.451 4.79841C12.6372 4.76102 12.8081 4.66927 12.9421 4.53475C13.0761 4.40022 13.1672 4.22898 13.2039 4.04267C13.2406 3.85636 13.2212 3.66336 13.1482 3.48807C13.0752 3.31278 12.9518 3.16308 12.7937 3.05791C12.6356 2.95273 12.4499 2.8968 12.26 2.8972C12.0054 2.89773 11.7615 2.99933 11.5819 3.17965C11.4022 3.35997 11.3016 3.60426 11.302 3.8588ZM3.89232 8.14253C3.89679 10.4113 5.73939 12.2463 8.00766 12.2421C10.2761 12.2377 12.1123 10.3953 12.1081 8.12653C12.1037 5.85773 10.2607 4.0222 7.99205 4.02667C5.72339 4.03113 3.88805 5.874 3.89232 8.14253ZM5.33332 8.13967C5.33228 7.61225 5.48766 7.09638 5.77981 6.65727C6.07195 6.21816 6.48775 5.87555 6.97462 5.67275C7.46148 5.46995 7.99755 5.41608 8.51503 5.51795C9.03252 5.61982 9.50817 5.87285 9.88185 6.24504C10.2555 6.61724 10.5104 7.09188 10.6144 7.60896C10.7183 8.12603 10.6666 8.66231 10.4657 9.14998C10.2648 9.63765 9.92387 10.0548 9.48593 10.3487C9.04799 10.6426 8.53273 10.8 8.00532 10.8011C7.65511 10.8018 7.30819 10.7335 6.98437 10.6002C6.66055 10.4668 6.36616 10.271 6.11804 10.0238C5.86991 9.7767 5.6729 9.4831 5.53826 9.15981C5.40362 8.83652 5.33398 8.48987 5.33332 8.13967Z" fill="currentColor"/>
  </g>
  <defs>
    <clipPath id="clip0_1013_10986">
      <rect width="16" height="16" fill="white" transform="translate(0 0.134521)"/>
    </clipPath>
  </defs>
</svg>
