<svg id="root" fill="none" height="17" viewBox="0 0 16 17" width="16" xmlns="http://www.w3.org/2000/svg" xmlns:xlink="http://www.w3.org/1999/xlink"><clipPath id="a"><path d="m0 .134521h16v16h-16z"/></clipPath><g clip-path="url(#a)"><path d="m13.6313 13.7692h-2.3693v-3.7127c0-.88531-.018-2.02465-1.2347-2.02465-1.2353 0-1.42397.96334-1.42397 1.95934v3.77801h-2.36933v-7.63468h2.276v1.04067h.03067c.318-.6 1.09133-1.23333 2.24663-1.23333 2.4007 0 2.8447 1.58 2.8447 3.63666zm-10.0733-8.67934c-.76267 0-1.37533-.61734-1.37533-1.37667 0-.75867.61333-1.37534 1.37533-1.37534.76 0 1.376.61667 1.376 1.37534 0 .75933-.61667 1.37667-1.376 1.37667zm1.188 8.67934h-2.376v-7.63468h2.376zm10.0707-13.634679h-13.63603c-.65267 0-1.18067.516001-1.18067 1.152669v13.69471c0 .6373.528 1.1526 1.18067 1.1526h13.63403c.652 0 1.1853-.5153 1.1853-1.1526v-13.69471c0-.636668-.5333-1.152669-1.1853-1.152669z" fill="currentColor"/></g></svg>
